<svg width="111" height="180" viewBox="0 0 111 180" fill="none" xmlns="http://www.w3.org/2000/svg">
<g id="Vector">
<path d="M97 137.19C96.9 137.39 96.8 137.49 96.7 137.69C96.4 137.79 96.3 137.89 96.4 138.19C93.5 141.99 90.8 145.89 87.5 149.39C84.1 152.99 80.6 156.59 76.8 159.89C76.4 160.19 76 160.49 75.7 160.79C71.3 164.69 66.6 168.19 61.7 171.39C57.8 173.99 54 176.49 50.1 179.09C49.3 179.59 48.6 179.89 47.7 179.39C40.3 175.59 32.9 171.89 25.5 168.19C25.3 168.09 25.2 167.89 25 167.79C19.1 165.19 13.4 161.99 7.59999 159.19C5.19999 157.99 2.7 156.69 0 155.29C2.9 154.19 5.4 153.29 8 152.39C18.2 148.59 28.2 144.39 38 139.79C38.4 139.59 38.8 139.49 39.1 139.39C44.6 136.59 50 133.89 55.5 131.09C63.4 126.99 70.8 122.29 78.2 117.39C82.8 113.89 87.5 110.49 91.7 106.39C98.4 99.8897 104.3 92.8897 106.4 83.2897C112.5 95.8897 109.9 119.59 97 137.19Z" fill="#52730D"/>
<path d="M101.9 78.6896C102.4 81.4896 101.4 84.0896 100.4 86.5896C97.9001 92.9896 93.4 97.8896 88.3 102.29C87.9 102.59 87.5001 102.99 87.5001 102.09C87.3001 97.7896 86.1001 93.7896 84.5001 89.7896C82.1001 85.2896 79.1001 81.1896 75.5001 77.4896C68.5001 71.1896 60.6 66.2896 51.3 62.5896C53.7001 61.2896 55.7 60.1896 57.7 58.9896C65.6 54.4896 73.7001 50.3896 82.0001 46.5896C82.8001 46.1896 83.4 45.8896 84.2 46.5896C89.5 50.9896 94.3 55.6896 97.7 61.7896C100.4 66.0896 101.9 70.6896 102.3 75.6896C102.5 76.7896 101.9 77.6896 101.9 78.6896Z" fill="#52730D"/>
<path d="M111 24.4896C105.7 26.4896 100.7 28.3896 95.7 30.2896C87.7 33.3896 79.8001 36.9896 71.9001 40.3896C66.0001 43.3896 60.1 46.3896 54.3 49.3896C49.5 51.8896 44.9001 54.5896 40.4001 57.4896C38.3001 58.7896 36.2 60.0896 34.1 61.4896C34.1 61.2896 34.0001 61.0896 34.0001 60.8896C33.9001 60.8896 33.9 60.9896 33.8 60.9896C33.9 61.1896 34 61.2896 34.1 61.4896C33.7 61.7896 33.3 62.0896 32.8 62.3896C28.7 65.4896 24.5 68.6896 20.6 72.0896C13.4001 78.3896 6.90006 86.5896 4.50006 96.1896C-2.89994 87.2896 2.40005 56.8896 14.1 41.8896C14.4 41.8896 14.5001 41.6896 14.5001 41.3896C16.9001 37.5896 19.7 34.0896 22.8 30.7896C26.7 26.5896 30.7 22.3896 35.3 18.8896C39.3 15.2896 43.6 11.9896 48.1 8.98962C52.4 6.08962 56.5001 3.08962 61.0001 0.48962C61.8001 -0.0103797 62.5001 -0.210377 63.5001 0.289623C70.7001 3.98962 78 7.68962 85.3 11.2896C85.6001 11.3896 85.8001 11.6896 86.1001 11.8896C92.1001 14.4896 97.7001 17.6896 103.6 20.5896C105.9 21.8896 108.3 23.1896 111 24.4896Z" fill="#52730D"/>
<path d="M58.7 117.59C49 123.09 39.2 128.39 29 132.99C28.3 133.29 27.6 133.79 26.7 133.09C22.1 129.29 17.8 125.19 14.6 120.09C14.6 119.69 14.7 119.29 14.1 119.39L14 119.29C14.4 118.69 14.1 118.39 13.4 118.29C9.80001 112.59 7.90001 106.49 8.80001 99.6896C9.10001 95.4896 10.6 91.5896 12.8 88.0896C15.2 84.1896 18.3 80.8896 21.8 77.8896C22.5 77.2896 22.4 77.2896 23.2 77.4896C23.1 81.3896 24.5 84.9896 25.7 88.5896C27.3 91.6896 29 94.8896 31.2 97.5896C33.1 99.9896 35.4 101.99 37.5 104.19C42.6 108.09 47.9 111.79 53.8 114.49C55.5 115.29 57.3 116.09 58.9 116.89C59.2 117.29 58.9 117.39 58.7 117.59Z" fill="#52730D"/>
<path d="M13.5 118.29C14.1 118.39 14.4 118.59 14.1 119.29C13.6 119.09 13.5 118.69 13.5 118.29Z" fill="#52730D"/>
<path d="M14.1 119.29C14.7 119.19 14.6 119.59 14.6 119.99C14.4 119.79 14.3 119.59 14.1 119.29Z" fill="#52730D"/>
<path d="M14.5999 41.5896C14.5999 41.8896 14.5 41.9896 14.2 42.0896C14.3 41.8896 14.4999 41.6896 14.5999 41.5896Z" fill="#52730D"/>
<path d="M34.1001 61.5896C34.0001 61.3896 33.9 61.2896 33.8 61.0896C33.9 61.0896 33.9001 60.9896 34.0001 60.9896C34.0001 61.1896 34.1001 61.3896 34.1001 61.5896Z" fill="#52730D"/>
</g>
</svg>
